PathFileType	4	(X/Y/Z)	path1_03_0-527.trc
DataRate	CameraRate	NumFrames	NumMarkers	Units	OrigDataRate	OrigDataStartFrame	OrigNumFrames
30	30	6	22	m	30	461	527
Frame#	Time	Hip			RHip			RKnee			RAnkle			RBigToe			RSmallToe			RHeel			LHip			LKnee			LAnkle			LBigToe			LSmallToe			LHeel			Neck			Head			Nose			RShoulder			RElbow			RWrist			LShoulder			LElbow			LWrist		
		X1	Y1	Z1	X2	Y2	Z2	X3	Y3	Z3	X4	Y4	Z4	X5	Y5	Z5	X6	Y6	Z6	X7	Y7	Z7	X8	Y8	Z8	X9	Y9	Z9	X10	Y10	Z10	X11	Y11	Z11	X12	Y12	Z12	X13	Y13	Z13	X14	Y14	Z14	X15	Y15	Z15	X16	Y16	Z16	X17	Y17	Z17	X18	Y18	Z18	X19	Y19	Z19	X20	Y20	Z20	X21	Y21	Z21	X22	Y22	Z22
462	15.4	-1.3335811334637102	0.8202134389836574	0.7352817326375403	-1.3181143441981622	0.7896696274219455	0.6375950561854681	-1.2142180973318988	0.46062873971665763	0.6596342778529423	-1.0825982632158357	0.10174735225283087	0.6916487479999072	-1.2526692617651682	0.0020911475206442983	0.6679364560868515	-1.2204926817239146	0.006100261697952563	0.611642131134231	-1.0495706961255953	0.032696435101512926	0.7132943982337463	-1.3401908590577034	0.7855016567417925	0.8296143535083991	-1.497547234854725	0.4591356939622865	0.8437413621759161	-1.6232171707070149	0.0879757210330197	0.8454362905533069	-1.8300912293985523	0.061239157706088565	0.8716074175874844	-1.7860187787076172	0.04357864955615021	0.9041108619963225	-1.596677916051845	0.030888231823031954	0.8265581026953833	-1.3568109161916584	1.4290892172671505	0.7327671788536828	-1.4701003051328296	1.689411606702654	0.7454148822426998	-1.5157602916330264	1.5208491380561289	0.7212768795839262	-1.3071560887200144	1.3365022285204284	0.5752874944281468	-1.3837485986804	1.0641388356999826	0.5010463726555182	-1.5654779118772681	0.8616579625548956	0.4972994109123293	-1.3201839929537582	1.3305177280102567	0.9209121844438293	-1.2364355832314886	1.0348007812672142	0.9264559893774006	-1.263125952207115	0.8076078342810447	0.9948876139759867
463	15.433333333333334	-1.3728963689166975	0.8151138719276443	0.7378425078158362	-1.3604094797072148	0.7872040673445311	0.6401062884214349	-1.2506574629900522	0.45735408271084865	0.6597267143410362	-1.093058447964592	0.11069736424388253	0.6902551275549349	-1.2529418902204559	0.00011173638052853989	0.6670806249494834	-1.2183233951505823	0.00861311227032613	0.6102441546473794	-1.0541996448218747	0.04609600747729517	0.7105892866494433	-1.3796815857761004	0.7823019732961056	0.8309240677419195	-1.54249864564931	0.4596932713840237	0.8397143947767957	-1.6675320659058455	0.08333527781269348	0.8448620892370465	-1.883571826612128	0.05640245434375911	0.870509981964336	-1.8421232746001976	0.03825238158129829	0.9029159752393786	-1.6454030007043785	0.02464418211246072	0.8264330046049084	-1.3959944865534755	1.4241928489264453	0.7419941901441685	-1.5151255441137939	1.6892053253650943	0.7565132346136516	-1.5514756194790167	1.5135557272828906	0.7195454194550264	-1.3472310606562865	1.3309938238761772	0.5824271118138996	-1.4271645947644127	1.0625315315575623	0.5004101290606365	-1.6113790522198816	0.8615960498501267	0.49882049984784765	-1.3550480750085323	1.3238356011192278	0.9281713207324	-1.271880650233468	1.0287606514778225	0.9284420062720319	-1.2974986193268547	0.8020658406313095	0.9968764658976235
464	15.466666666666669	-1.4145497853536875	0.8112346158507808	0.741603242094884	-1.404813779262577	0.7856929486568244	0.6437485719162529	-1.2961981220886565	0.4542752714122662	0.6598600475703321	-1.1111819874634052	0.1246751867528995	0.687648118712487	-1.2542561332217408	-0.0024503357155726386	0.666317939888211	-1.214610440605307	0.011688274629367184	0.6104298152451416	-1.0625827896538074	0.06743464215885923	0.7062457078732908	-1.4209553477396746	0.7802218420038846	0.833256236661085	-1.5851468636907435	0.45979945656434684	0.836746900764613	-1.6956805163051125	0.07950423129866879	0.8425269729812765	-1.9223139233615836	0.045417907364516896	0.8690688910076745	-1.8815365429741848	0.02839337214784712	0.9012742293378287	-1.6754955540374965	0.02066765906677736	0.8235480451162798	-1.4345044450517708	1.421012104928455	0.7534744157938241	-1.5586362066576511	1.689205241018395	0.767519670029265	-1.5863122717706357	1.507262924300554	0.7167872875354798	-1.386925432834088	1.3265784080905991	0.5902912538117746	-1.470414044127363	1.0622374268213652	0.4986228617601165	-1.6533759072574425	0.8613500372071425	0.4990405542327581	-1.3887215881557067	1.316783896776224	0.9365778846191744	-1.311463745010387	1.0249498847398206	0.9332855416843145	-1.3363459588573219	0.7972545669815185	0.99940781796753
465	15.5	-1.458284316778487	0.808812945327829	0.7465133266354559	-1.4506886796373624	0.7847562576113074	0.6486180869268829	-1.3511112519276756	0.4511123687828911	0.6602420133979178	-1.1390677168308954	0.14399987218996627	0.6839387789662783	-1.2573220958699924	-0.004737029806548566	0.664938918756739	-1.2133951558759886	0.016112931011188054	0.6108169806291038	-1.0773577114364143	0.09717941222985023	0.7005988102674092	-1.4638439611497986	0.7790090576030624	0.8368386710139325	-1.6245575155257634	0.4591708201387838	0.8352729547320628	-1.7123572230058035	0.07588481988754103	0.8395666264780913	-1.9472407275981165	0.03083430092685185	0.8679277222214861	-1.9061801429271505	0.016013483194779413	0.8997672208602425	-1.691921408444558	0.018140220461946036	0.8194333076918743	-1.4713848937942349	1.4198910906394795	0.7655355659684119	-1.5998943459754995	1.6892088485183727	0.7775698999791519	-1.6214077616326217	1.5031360097355908	0.7146373877426738	-1.4260596758994963	1.3239821460001735	0.5982423689808753	-1.5124611828927015	1.0633782706284638	0.4973636187701227	-1.690778020657321	0.8611335120131229	0.5002734123209432	-1.422149418837909	1.3109341304443018	0.9445902733470999	-1.3559392125429883	1.0239623271230478	0.9416831739334619	-1.3798248997504607	0.7937984114282713	1.0028042537947104
466	15.533333333333331	-1.5033188751500604	0.8077937429650971	0.7523895349972598	-1.4972444587995792	0.7841103951458861	0.6545133667875963	-1.4140322326743882	0.44776168654440746	0.6612400508883642	-1.1780085759141374	0.16756755837429038	0.6795871458814495	-1.2638667314080807	-0.00513483872491741	0.6620779956059554	-1.2190013841181764	0.0230256561151132	0.6099665245108649	-1.1011944206581934	0.13364157523647285	0.6944106944439556	-1.5077885627061893	0.7783632166449699	0.8416984257661065	-1.660063467828099	0.4576666436010879	0.8354606666419616	-1.7215811288690976	0.07257946816745019	0.8369323119291258	-1.9602961843152071	0.01542428091884156	0.8670193832749304	-1.919286094207691	0.003088421356480498	0.8981214868894912	-1.6995126933130345	0.016735820703999336	0.8156677316920393	-1.506549192154125	1.4205781975073124	0.7757353161054937	-1.6387514081325643	1.689098530143374	0.7863392535720457	-1.657339762572967	1.5015819377576292	0.7135776326506178	-1.4643343463126948	1.3237169705206049	0.6057328891688996	-1.551418724984816	1.065578850973201	0.49860675298138213	-1.722218849133879	0.8607053798306574	0.5043177353193405	-1.456209899050243	1.3076259226968616	0.9504481102532076	-1.4052156334098431	1.0257601750315553	0.9535733786007959	-1.428121346128535	0.7921283794047539	1.0071986164411255
467	15.566666666666666	-1.5485463846282839	0.8079210182393217	0.758879298310921	-1.5436412002495403	0.7836197162937121	0.6610570408476106	-1.4821586058229688	0.4446671571761887	0.663099045198504	-1.2282520887064425	0.19250316162572648	0.6753253554739055	-1.2779866571285512	-0.002020806602490929	0.6572549893574957	-1.23523798405337	0.03351587586614915	0.6070282108206932	-1.136369383199119	0.17241586352306693	0.6888506665495086	-1.551841861914346	0.7779992151160593	0.8476032047879518	-1.6910528504118167	0.45485347922215597	0.837310909622496	-1.7262228603190617	0.06992350256706767	0.8350999329681771	-1.9640471072674361	0.0015326781135968789	0.866006731722659	-1.924401640633811	-0.008936493509001914	0.8958696489968061	-1.7019698638857734	0.016268442756890662	0.8133412809263847	-1.5411163136103787	1.4225503726803066	0.7821185348758302	-1.6751667781914954	1.688683695249357	0.7936911201616865	-1.6940703284933165	1.5023377870271	0.7132092783877658	-1.5014028832722817	1.325838350049516	0.6123982314147389	-1.5856050950057619	1.0683126064520523	0.5034016082651608	-1.7469269996755856	0.8597286707054228	0.5111950606751668	-1.4912904192254401	1.307327909503928	0.9535798939534844	-1.4575588265842496	1.029467594312354	0.9672359648129802	-1.4811956578287822	0.7924397261064053	1.012453132752506
